<?xml version="1.0" encoding="utf-8"?>
<svg x="93.0258pt" y="63.9664pt" width="545.559pt" height="156.818pt" viewBox="93.0258 63.9664 545.559 156.818" xmlns="http://www.w3.org/2000/svg" xmlns:xlink="http://www.w3.org/1999/xlink">
  <defs>
    <title>Path</title>
    <g id="1">
      <defs>
        <path id="2" d="M193.84,63.9664 C193.84,63.9664,638.584,63.9664,638.584,63.9664 C638.584,63.9664,638.584,220.784,638.584,220.784 C638.584,220.784,193.84,220.784,193.84,220.784 C193.84,220.784,193.84,63.9664,193.84,63.9664 z"/>
      </defs>
      <use xlink:href="#2" style="fill:#0e6dbb;fill-opacity:1;opacity:1;stroke:none;"/>
    </g>
  </defs>
  <use xlink:href="#1"/>
  <defs>
    <title>Text</title>
    <g id="3">
      <defs>
        <path id="4" d="M136.898,172.568 C136.898,174.203,136.69,175.674,136.275,176.98 C135.86,178.287,135.311,179.434,134.627,180.423 C133.944,181.412,133.15,182.254,132.247,182.95 C131.344,183.646,130.398,184.213,129.409,184.653 C128.42,185.092,127.419,185.416,126.406,185.623 C125.393,185.831,124.434,185.934,123.531,185.934 C123.531,185.934,106.356,185.934,106.356,185.934 C104.72,185.934,103.255,185.727,101.961,185.312 C100.667,184.897,99.526,184.341,98.5372,183.646 C97.5485,182.95,96.7062,182.15,96.0104,181.247 C95.3146,180.344,94.7469,179.397,94.3075,178.409 C93.868,177.42,93.5446,176.419,93.337,175.406 C93.1295,174.393,93.0258,173.447,93.0258,172.568 C93.0258,172.568,93.0258,159.677,93.0258,159.677 C93.0258,157.236,93.4713,155.167,94.3624,153.47 C95.2535,151.773,96.3644,150.394,97.6949,149.332 C99.0255,148.27,100.472,147.507,102.035,147.043 C103.597,146.579,105.037,146.347,106.356,146.347 C106.356,146.347,123.531,146.347,123.531,146.347 C123.531,146.347,123.531,155.868,123.531,155.868 C123.531,155.868,106.429,155.868,106.429,155.868 C105.16,155.868,104.195,156.192,103.536,156.839 C102.877,157.486,102.547,158.432,102.547,159.677 C102.547,159.677,102.547,172.494,102.547,172.494 C102.547,173.788,102.871,174.765,103.518,175.424 C104.165,176.083,105.111,176.413,106.356,176.413 C106.356,176.413,123.531,176.413,123.531,176.413 C124.825,176.413,125.789,176.083,126.424,175.424 C127.059,174.765,127.376,173.813,127.376,172.568 C127.376,172.568,127.376,129.611,127.376,129.611 C127.376,129.611,136.898,129.611,136.898,129.611 z M186.849,172.824 C186.849,174.142,186.617,175.564,186.153,177.09 C185.689,178.616,184.939,180.032,183.901,181.338 C182.863,182.645,181.508,183.737,179.836,184.616 C178.164,185.495,176.131,185.934,173.739,185.934 C173.739,185.934,156.563,185.934,156.563,185.934 C155.245,185.934,153.823,185.702,152.297,185.239 C150.771,184.775,149.355,184.024,148.049,182.986 C146.743,181.949,145.65,180.594,144.771,178.921 C143.892,177.249,143.453,175.217,143.453,172.824 C143.453,171.506,143.685,170.077,144.149,168.539 C144.613,167.001,145.363,165.579,146.401,164.273 C147.439,162.967,148.794,161.874,150.466,160.995 C152.138,160.116,154.171,159.677,156.563,159.677 C156.563,159.677,173.739,159.677,173.739,159.677 C173.739,159.677,173.739,168.759,173.739,168.759 C173.739,168.759,156.563,168.759,156.563,168.759 C155.269,168.759,154.268,169.156,153.56,169.949 C152.852,170.743,152.498,171.725,152.498,172.897 C152.498,174.142,152.907,175.113,153.725,175.809 C154.543,176.504,155.514,176.852,156.637,176.852 C156.637,176.852,173.739,176.852,173.739,176.852 C175.033,176.852,176.034,176.462,176.742,175.68 C177.45,174.899,177.804,173.923,177.804,172.751 C177.804,172.751,177.804,159.457,177.804,159.457 C177.804,158.212,177.419,157.223,176.65,156.491 C175.881,155.759,174.911,155.392,173.739,155.392 C173.739,155.392,152.828,155.392,152.828,155.392 C152.828,155.392,152.828,146.347,152.828,146.347 C152.828,146.347,173.739,146.347,173.739,146.347 C175.057,146.347,176.479,146.579,178.005,147.043 C179.531,147.507,180.947,148.257,182.253,149.295 C183.559,150.333,184.652,151.688,185.531,153.36 C186.41,155.032,186.849,157.065,186.849,159.457 z"/>
      </defs>
      <use xlink:href="#4" style="fill:#000000;fill-opacity:1;opacity:1;stroke:none;"/>
    </g>
  </defs>
  <use xlink:href="#3"/>
  <defs>
    <title>Text</title>
    <g id="5">
      <defs>
        <path id="6" d="M292.738,159.688 C292.738,162.796,292.344,165.591,291.557,168.073 C290.77,170.556,289.731,172.746,288.439,174.643 C287.147,176.54,285.634,178.154,283.898,179.486 C282.162,180.819,280.366,181.908,278.509,182.756 C276.652,183.604,274.765,184.229,272.848,184.633 C270.931,185.037,269.124,185.238,267.429,185.238 C267.429,185.238,206.701,185.238,206.701,185.238 C206.701,185.238,206.701,169.496,206.701,169.496 C206.701,169.496,267.429,169.496,267.429,169.496 C270.456,169.496,272.808,168.608,274.483,166.832 C276.158,165.056,276.996,162.675,276.996,159.688 C276.996,158.235,276.774,156.902,276.33,155.692 C275.886,154.481,275.25,153.431,274.422,152.543 C273.595,151.655,272.586,150.969,271.395,150.485 C270.204,150,268.882,149.758,267.429,149.758 C267.429,149.758,231.222,149.758,231.222,149.758 C228.679,149.758,225.934,149.304,222.988,148.396 C220.041,147.487,217.306,146.024,214.784,144.006 C212.261,141.988,210.162,139.344,208.487,136.074 C206.812,132.805,205.974,128.809,205.974,124.086 C205.974,119.363,206.812,115.377,208.487,112.128 C210.162,108.879,212.261,106.235,214.784,104.196 C217.306,102.158,220.041,100.685,222.988,99.7765 C225.934,98.8683,228.679,98.4142,231.222,98.4142 C231.222,98.4142,284.806,98.4142,284.806,98.4142 C284.806,98.4142,284.806,114.156,284.806,114.156 C284.806,114.156,231.222,114.156,231.222,114.156 C228.235,114.156,225.904,115.065,224.229,116.881 C222.554,118.697,221.716,121.099,221.716,124.086 C221.716,127.113,222.554,129.505,224.229,131.261 C225.904,133.017,228.235,133.895,231.222,133.895 C231.222,133.895,267.429,133.895,267.429,133.895 C267.429,133.895,267.55,133.895,267.55,133.895 C269.246,133.935,271.042,134.167,272.939,134.591 C274.836,135.015,276.723,135.671,278.6,136.559 C280.477,137.447,282.263,138.567,283.958,139.919 C285.654,141.271,287.157,142.896,288.469,144.793 C289.781,146.69,290.82,148.87,291.587,151.332 C292.354,153.794,292.738,156.58,292.738,159.688 z M418.83,98.4142 C418.83,98.4142,404.298,179.789,404.298,179.789 C403.975,181.404,403.249,182.796,402.119,183.967 C400.988,185.138,399.616,185.884,398.001,186.207 C396.346,186.49,394.782,186.308,393.309,185.662 C391.836,185.016,390.675,184.007,389.828,182.635 C389.828,182.635,361.007,135.287,361.007,135.287 C361.007,135.287,332.126,182.635,332.126,182.635 C331.44,183.805,330.502,184.714,329.311,185.36 C328.12,186.005,326.839,186.328,325.466,186.328 C323.569,186.328,321.894,185.723,320.441,184.512 C318.988,183.301,318.1,181.727,317.777,179.789 C317.777,179.789,303.124,98.4142,303.124,98.4142 C303.124,98.4142,319.109,98.4142,319.109,98.4142 C319.109,98.4142,329.523,155.752,329.523,155.752 C329.523,155.752,354.347,116.154,354.347,116.154 C355.033,114.984,355.972,114.076,357.163,113.43 C358.353,112.784,359.635,112.461,361.007,112.461 C362.38,112.461,363.651,112.784,364.822,113.43 C365.992,114.076,366.961,114.984,367.728,116.154 C367.728,116.154,392.431,155.752,392.431,155.752 C392.431,155.752,402.845,98.4142,402.845,98.4142 z M519.492,185.238 C519.492,185.238,503.749,185.238,503.749,185.238 C503.749,185.238,503.749,163.926,503.749,163.926 C503.749,163.926,448.41,163.926,448.41,163.926 C448.41,163.926,448.41,185.238,448.41,185.238 C448.41,185.238,432.667,185.238,432.667,185.238 C432.667,185.238,432.667,141.826,432.667,141.826 C432.667,135.489,433.757,129.656,435.937,124.328 C438.117,119,441.144,114.419,445.019,110.584 C448.894,106.75,453.475,103.763,458.763,101.623 C464.051,99.4839,469.823,98.4142,476.08,98.4142 C476.08,98.4142,511.56,98.4142,511.56,98.4142 C512.65,98.4142,513.679,98.616,514.648,99.0197 C515.617,99.4233,516.464,99.9884,517.191,100.715 C517.917,101.442,518.483,102.289,518.886,103.258 C519.29,104.227,519.492,105.256,519.492,106.346 z M448.41,148.184 C448.41,148.184,503.749,148.184,503.749,148.184 C503.749,148.184,503.749,114.156,503.749,114.156 C503.749,114.156,476.08,114.156,476.08,114.156 C475.595,114.156,474.576,114.227,473.022,114.368 C471.468,114.51,469.672,114.863,467.633,115.428 C465.595,115.993,463.445,116.861,461.185,118.031 C458.925,119.202,456.846,120.817,454.949,122.875 C453.052,124.934,451.487,127.507,450.256,130.595 C449.025,133.683,448.41,137.427,448.41,141.826 z M626.451,177.307 C626.451,178.437,626.249,179.486,625.845,180.455 C625.442,181.424,624.886,182.262,624.18,182.968 C623.474,183.674,622.636,184.229,621.667,184.633 C620.699,185.037,619.649,185.238,618.519,185.238 C618.519,185.238,561.726,185.238,561.726,185.238 C560.273,185.238,558.709,185.067,557.034,184.724 C555.359,184.381,553.704,183.846,552.069,183.119 C550.434,182.393,548.87,181.454,547.376,180.304 C545.883,179.153,544.561,177.761,543.411,176.126 C542.26,174.491,541.342,172.594,540.656,170.435 C539.969,168.275,539.626,165.843,539.626,163.139 C539.626,163.139,539.626,120.514,539.626,120.514 C539.626,119.061,539.798,117.497,540.141,115.821 C540.484,114.146,541.019,112.491,541.746,110.857 C542.472,109.222,543.421,107.658,544.591,106.164 C545.762,104.671,547.164,103.349,548.799,102.198 C550.434,101.048,552.321,100.13,554.46,99.4435 C556.6,98.7573,559.022,98.4142,561.726,98.4142 C561.726,98.4142,625.724,98.4142,625.724,98.4142 C625.724,98.4142,625.724,114.156,625.724,114.156 C625.724,114.156,561.726,114.156,561.726,114.156 C559.667,114.156,558.093,114.701,557.003,115.791 C555.914,116.881,555.369,118.496,555.369,120.635 C555.369,120.635,555.369,163.139,555.369,163.139 C555.369,165.157,555.924,166.721,557.034,167.831 C558.144,168.941,559.708,169.496,561.726,169.496 C561.726,169.496,610.708,169.496,610.708,169.496 C610.708,169.496,610.708,149.758,610.708,149.758 C610.708,149.758,568.81,149.758,568.81,149.758 C568.81,149.758,568.81,133.895,568.81,133.895 C568.81,133.895,618.519,133.895,618.519,133.895 C619.649,133.895,620.699,134.107,621.667,134.53 C622.636,134.954,623.474,135.529,624.18,136.256 C624.886,136.983,625.442,137.82,625.845,138.769 C626.249,139.717,626.451,140.736,626.451,141.826 z"/>
      </defs>
      <use xlink:href="#6" style="fill:#ffffff;fill-opacity:1;opacity:1;stroke:none;"/>
    </g>
  </defs>
  <use xlink:href="#5"/>
</svg>
